<svg width="566" height="130" viewBox="0 0 566 130" fill="none" xmlns="http://www.w3.org/2000/svg">
<path d="M0.700219 71.998C0.563804 71.671 0.496313 71.3159 0.492388 70.9616C0.0633913 32.2322 25.1866 0.500015 65.5 0.5C106 0.499985 120 26 123 36C126 46 120 51 113 54C106 57 69.5 52.5 65.5 55.5C61.5 58.5 59.5 62.5 57.5 64C55.9392 65.1706 44.9386 64.8186 40.1823 64.6076C38.9567 64.5532 38 63.5411 38 62.3142C38 61.0361 36.9639 60 35.6858 60H26.1675C25.4166 60 24.659 59.7458 24.1951 59.1553C23.4768 58.2411 23.4624 57.4741 24.1759 56.4666C24.6454 55.8035 25.4587 55.5 26.2712 55.5H35C36.6568 55.5 38 54.1569 38 52.5V49C38 47.3431 36.6568 46 35 46H26.1467C25.4083 46 24.6468 45.7634 24.2236 45.1583C23.6983 44.407 23.7023 43.7004 24.1803 42.7704C24.6152 41.9243 25.5612 41.5 26.5125 41.5H35.75C36.9926 41.5 38 40.4926 38 39.25C38 38.0074 39.007 37.0004 40.2496 36.9871C47.2869 36.9118 55.1956 36.5489 57 37C59 37.5 63.5 46 65.5 46H108C118 46 115.5 36 113 32.5C110.5 29 104 10.5 64 7.5C24.3704 4.52779 4.86286 47.6892 8.88117 70.8558C8.95599 71.2872 8.95312 71.7228 8.82204 72.1406C8.20172 74.1175 7.19649 74.8191 4.5 75C2.71353 75.1457 1.7983 74.6306 0.700219 71.998Z" fill="#A18A68"/>
<path d="M144.092 57.0244C144.228 57.3515 144.296 57.7065 144.299 58.0609C144.728 96.7903 119.605 128.522 79.2919 128.522C38.7919 128.522 24.7919 103.022 21.7919 93.0224C18.7919 83.0224 24.7919 78.0224 31.7919 75.0224C38.7919 72.0225 75.2919 76.5225 79.2919 73.5224C83.2919 70.5224 85.2919 66.5224 87.2919 65.0224C88.8527 63.8518 99.8533 64.2038 104.61 64.4148C105.835 64.4692 106.792 65.4814 106.792 66.7082C106.792 67.9863 107.828 69.0224 109.106 69.0224H118.624C119.375 69.0224 120.133 69.2767 120.597 69.8671C121.315 70.7813 121.329 71.5484 120.616 72.5559C120.146 73.219 119.333 73.5224 118.521 73.5224H109.792C108.135 73.5224 106.792 74.8656 106.792 76.5224V80.0224C106.792 81.6793 108.135 83.0224 109.792 83.0224H118.645C119.384 83.0224 120.145 83.259 120.568 83.8642C121.094 84.6154 121.09 85.322 120.612 86.2521C120.177 87.0982 119.231 87.5224 118.279 87.5224H109.042C107.799 87.5224 106.792 88.5298 106.792 89.7724C106.792 91.0151 105.785 92.0221 104.542 92.0354C97.505 92.1107 89.5962 92.4735 87.7919 92.0224C85.7919 91.5224 81.2919 83.0224 79.2919 83.0224H36.7919C26.7919 83.0224 29.2919 93.0224 31.7919 96.5224C34.2919 100.022 40.7919 118.522 80.7919 121.522C120.422 124.495 139.929 81.3332 135.911 58.1667C135.836 57.7353 135.839 57.2996 135.97 56.8819C136.59 54.9049 137.595 54.2033 140.292 54.0224C142.078 53.8767 142.994 54.3918 144.092 57.0244Z" fill="black"/>
<path d="M79.2919 83.0224C81.2919 83.0224 85.7919 91.5224 87.7919 92.0224C89.5962 92.4735 97.505 92.1107 104.542 92.0354C105.785 92.0221 106.792 91.0151 106.792 89.7724V89.7724C106.792 88.5298 107.799 87.5224 109.042 87.5224H118.279C119.231 87.5224 120.177 87.0982 120.612 86.2521C121.09 85.322 121.094 84.6154 120.568 83.8642C120.145 83.259 119.384 83.0224 118.645 83.0224H109.792C108.135 83.0224 106.792 81.6793 106.792 80.0224V76.5224C106.792 74.8656 108.135 73.5224 109.792 73.5224H118.521C119.333 73.5224 120.146 73.219 120.616 72.5559C121.329 71.5484 121.315 70.7814 120.597 69.8671C120.133 69.2767 119.375 69.0224 118.624 69.0224H109.106C107.828 69.0224 106.792 67.9863 106.792 66.7082V66.7082C106.792 65.4814 105.835 64.4692 104.61 64.4148C99.8533 64.2038 88.8527 63.8518 87.2919 65.0224C85.2919 66.5224 83.2919 70.5224 79.2919 73.5224C75.2919 76.5225 38.7919 72.0225 31.7919 75.0224C24.7919 78.0224 18.7919 83.0224 21.7919 93.0224C24.7919 103.022 38.7919 128.522 79.2919 128.522C119.605 128.522 144.728 96.7903 144.299 58.0609C144.296 57.7065 144.228 57.3515 144.092 57.0244C142.994 54.3918 142.078 53.8767 140.292 54.0224C137.595 54.2033 136.59 54.9049 135.97 56.8819C135.839 57.2996 135.836 57.7353 135.911 58.1667C139.929 81.3332 120.422 124.495 80.7919 121.522C40.7919 118.522 34.2919 100.022 31.7919 96.5224C29.2919 93.0224 26.7919 83.0224 36.7919 83.0224M79.2919 83.0224C77.2919 83.0224 46.7919 83.0224 36.7919 83.0224M79.2919 83.0224H36.7919" stroke="#070606"/>
<path d="M178 32.152H201.904V39.832H185.872V57.112H197.872V64.984H185.872V80.344H203.248V88.024H178V32.152ZM207.062 32.152H214.935V80.344H232.215V88.024H207.062V32.152ZM235.938 32.152H259.842V39.832H243.81V57.112H255.81V64.984H243.81V80.344H261.186V88.024H235.938V32.152ZM278.756 31.384C280.74 31.384 282.756 31.672 284.804 32.248C286.916 32.76 288.324 33.176 289.028 33.496C289.796 33.816 290.372 34.072 290.756 34.264L287.204 41.272L285.668 40.696C284.58 40.248 283.204 39.864 281.54 39.544C280.452 39.352 279.46 39.256 278.564 39.256C277.988 39.256 277.444 39.288 276.932 39.352C274.372 39.736 272.388 41.016 270.98 43.192C268.804 46.392 267.716 51.352 267.716 58.072C267.716 66.52 268.868 72.632 271.172 76.408C272.068 77.816 272.964 78.776 273.86 79.288C274.82 79.8 275.94 80.12 277.22 80.248C277.476 80.248 277.7 80.248 277.892 80.248C279.108 80.248 280.516 79.992 282.116 79.48C284.036 78.84 285.348 78.328 286.052 77.944C286.82 77.496 287.428 77.144 287.876 76.888L292.388 83.32L290.372 84.664C289.028 85.56 287.044 86.392 284.42 87.16C282.308 87.8 280.228 88.12 278.18 88.12C277.668 88.12 277.156 88.088 276.644 88.024C274.34 87.832 272.1 87.128 269.924 85.912C267.812 84.632 266.02 82.84 264.548 80.536C261.412 75.544 259.844 68.056 259.844 58.072C259.844 49.688 261.38 43.224 264.452 38.68C267.204 34.648 270.98 32.312 275.78 31.672C276.74 31.48 277.732 31.384 278.756 31.384ZM296.219 32.152H304.091V53.368L317.147 32.152H326.363L312.443 54.712L312.635 54.616L327.899 86.296L320.795 89.656L307.643 62.392L304.091 68.248V88.024H296.219V32.152ZM331.656 32.152H369.768V39.832H354.6V88.024H346.824V39.832H331.656V32.152ZM385.083 30.52C385.211 30.52 385.403 30.52 385.659 30.52C386.363 30.52 387.355 30.584 388.635 30.712C392.539 31.16 395.707 32.504 398.139 34.744C401.147 37.56 402.651 41.496 402.651 46.552C402.651 51.416 401.307 55.384 398.619 58.456C396.443 60.888 393.531 62.584 389.883 63.544C389.883 63.608 389.691 63.672 389.307 63.736L403.131 85.912L396.507 90.04L381.435 65.944V88.024H373.562V32.44L376.443 31.576L377.403 31.384C378.235 31.192 379.163 31 380.187 30.808C381.467 30.68 382.747 30.584 384.027 30.52C384.411 30.52 384.763 30.52 385.083 30.52ZM384.795 38.296C383.707 38.296 382.587 38.392 381.435 38.584V56.632C381.947 56.632 382.427 56.632 382.875 56.632C384.731 56.632 386.395 56.44 387.867 56.056C389.979 55.48 391.611 54.552 392.763 53.272C394.171 51.672 394.875 49.432 394.875 46.552C394.875 43.8 394.171 41.784 392.763 40.504C391.611 39.416 389.915 38.744 387.674 38.488C387.163 38.424 386.619 38.392 386.043 38.392C385.659 38.328 385.243 38.296 384.795 38.296ZM425.946 31.096C428.954 31.096 431.61 32.024 433.914 33.88C436.282 35.736 438.17 38.136 439.578 41.08C442.074 46.264 443.322 52.504 443.322 59.8C443.258 67.16 441.946 73.4 439.386 78.52C437.914 81.464 435.962 83.864 433.53 85.72C431.098 87.512 428.378 88.408 425.37 88.408C422.362 88.408 419.642 87.512 417.21 85.72C414.778 83.928 412.794 81.56 411.258 78.616C408.506 73.368 407.066 67.096 406.938 59.8C406.938 59.48 406.938 59.16 406.938 58.84C406.938 51.864 408.25 45.88 410.874 40.888C412.41 38.008 414.49 35.672 417.114 33.88C419.738 32.024 422.682 31.096 425.946 31.096ZM425.946 38.968C424.154 38.968 422.618 39.416 421.338 40.312C420.058 41.208 418.874 42.648 417.786 44.632C415.802 48.344 414.81 53.016 414.81 58.648C414.81 58.968 414.81 59.32 414.81 59.704C414.938 65.72 416.058 70.808 418.17 74.968C420.154 78.744 422.554 80.632 425.37 80.632C428.186 80.632 430.522 78.776 432.378 75.064C434.426 70.968 435.45 65.848 435.45 59.704C435.45 53.624 434.49 48.536 432.57 44.44C430.778 40.792 428.57 38.968 425.946 38.968ZM447.156 32.152H455.412L471.636 69.208V32.152H479.508V88.024H471.348L455.028 50.968V88.024H447.156V32.152ZM485.312 32.152H493.185V88.024H485.312V32.152ZM499 32.152H506.872V53.368L519.928 32.152H529.144L515.224 54.712L515.416 54.616L530.68 86.296L523.576 89.656L510.424 62.392L506.872 68.248V88.024H499V32.152ZM547.65 31.096C547.778 31.096 547.938 31.096 548.13 31.096C550.562 31.096 552.802 31.576 554.85 32.536C557.026 33.56 558.722 35.128 559.938 37.24L553.122 41.176C552.802 40.728 551.938 40.216 550.53 39.64C549.442 39.192 548.418 38.968 547.458 38.968C547.138 38.968 546.818 39 546.498 39.064C545.09 39.256 544.002 39.768 543.234 40.6C542.21 41.688 541.698 43.352 541.698 45.592C541.698 46.808 542.338 48.12 543.618 49.528C544.386 50.36 546.562 52.088 550.146 54.712C551.746 55.928 553.09 57.08 554.178 58.168C555.33 59.192 556.546 60.504 557.826 62.104C559.106 63.704 560.098 65.496 560.802 67.48C561.506 69.4 561.858 71.48 561.858 73.72C561.858 78.264 560.354 81.976 557.346 84.856C554.338 87.736 550.882 89.24 546.978 89.368C546.786 89.368 546.594 89.368 546.402 89.368C542.626 89.368 539.394 88.152 536.706 85.72C533.506 82.904 531.906 79.128 531.906 74.392H539.778C539.778 76.76 540.482 78.584 541.89 79.864C543.106 80.952 544.642 81.496 546.498 81.496C546.626 81.496 546.722 81.496 546.786 81.496C548.898 81.432 550.626 80.792 551.97 79.576C553.314 78.296 553.986 76.344 553.986 73.72C553.986 71.032 553.282 68.792 551.874 67C550.53 65.208 548.354 63.192 545.346 60.952C541.506 58.008 539.042 55.992 537.954 54.904C535.202 52.024 533.826 48.92 533.826 45.592C533.826 41.368 535.042 37.976 537.474 35.416C539.522 33.112 542.178 31.736 545.442 31.288C546.21 31.16 546.946 31.096 547.65 31.096Z" fill="#A18A68"/>
</svg>
